<?xml version="1.0" encoding="UTF-8" standalone="no"?>
<!-- Created with Inkscape (http://www.inkscape.org/) -->

<svg
   xmlns:dc="http://purl.org/dc/elements/1.1/"
   xmlns:cc="http://creativecommons.org/ns#"
   xmlns:rdf="http://www.w3.org/1999/02/22-rdf-syntax-ns#"
   xmlns:svg="http://www.w3.org/2000/svg"
   xmlns="http://www.w3.org/2000/svg"
   xmlns:sodipodi="http://sodipodi.sourceforge.net/DTD/sodipodi-0.dtd"
   xmlns:inkscape="http://www.inkscape.org/namespaces/inkscape"
   width="1623.5068"
   height="354.58093"
   id="svg2"
   version="1.1"
   inkscape:version="0.48.5 r10040"
   sodipodi:docname="spherical_up.svg">
  <defs
     id="defs4" />
  <sodipodi:namedview
     id="base"
     pagecolor="#ffffff"
     bordercolor="#666666"
     borderopacity="1.0"
     inkscape:pageopacity="1"
     inkscape:pageshadow="2"
     inkscape:zoom="1"
     inkscape:cx="255.24611"
     inkscape:cy="152.11972"
     inkscape:document-units="px"
     inkscape:current-layer="layer1"
     showgrid="true"
     fit-margin-left="32"
     fit-margin-top="32"
     fit-margin-right="32"
     fit-margin-bottom="32"
     inkscape:window-width="1362"
     inkscape:window-height="831"
     inkscape:window-x="0"
     inkscape:window-y="0"
     inkscape:window-maximized="0">
    <inkscape:grid
       type="xygrid"
       id="grid2985"
       empspacing="8"
       visible="true"
       enabled="true"
       snapvisiblegridlinesonly="true"
       spacingx="8px"
       spacingy="8px"
       originx="7.0068512px"
       originy="-61.918938px" />
  </sodipodi:namedview>
  <metadata
     id="metadata7">
    <rdf:RDF>
      <cc:Work
         rdf:about="">
        <dc:format>image/svg+xml</dc:format>
        <dc:type
           rdf:resource="http://purl.org/dc/dcmitype/StillImage" />
        <dc:title></dc:title>
      </cc:Work>
    </rdf:RDF>
  </metadata>
  <g
     inkscape:label="Layer 1"
     inkscape:groupmode="layer"
     id="layer1"
     transform="translate(7.0068512,-635.8623)">
    <path
       sodipodi:type="arc"
       style="fill:none;stroke:#000000;stroke-width:0.06250001;stroke-linecap:round;stroke-linejoin:round;stroke-miterlimit:4;stroke-opacity:1;stroke-dasharray:none;stroke-dashoffset:0"
       id="path3819"
       sodipodi:cx="176"
       sodipodi:cy="160"
       sodipodi:rx="8"
       sodipodi:ry="8"
       d="m 184,160 c 0,4.41828 -3.58172,8 -8,8 -4.41828,0 -8,-3.58172 -8,-8 0,-4.41828 3.58172,-8 8,-8 4.41828,0 8,3.58172 8,8 z"
       transform="matrix(15.999998,0,0,15.999998,-2639.9996,-1763.6374)" />
    <path
       sodipodi:type="arc"
       style="fill:#ff0000;fill-opacity:1;stroke:#000000;stroke-width:1;stroke-linecap:round;stroke-linejoin:round;stroke-miterlimit:4;stroke-opacity:1;stroke-dasharray:none;stroke-dashoffset:0"
       id="path2987"
       sodipodi:cx="128"
       sodipodi:cy="168"
       sodipodi:rx="8"
       sodipodi:ry="8"
       d="m 136,168 c 0,4.41828 -3.58172,8 -8,8 -4.41828,0 -8,-3.58172 -8,-8 0,-4.41828 3.58172,-8 8,-8 4.41828,0 8,3.58172 8,8 z"
       transform="translate(47.999984,628.36218)" />
    <path
       sodipodi:type="arc"
       style="fill:#800080;fill-opacity:1;stroke:#800080;stroke-width:1;stroke-linecap:round;stroke-linejoin:round;stroke-miterlimit:4;stroke-opacity:1;stroke-dasharray:none;stroke-dashoffset:0"
       id="path2989"
       sodipodi:cx="64"
       sodipodi:cy="96"
       sodipodi:rx="8"
       sodipodi:ry="8"
       d="m 72,96 c 0,4.41828 -3.581722,8 -8,8 -4.418278,0 -8,-3.58172 -8,-8 0,-4.418278 3.581722,-8 8,-8 4.418278,0 8,3.581722 8,8 z"
       transform="translate(-16.000016,700.36218)" />
    <text
       xml:space="preserve"
       style="font-size:18px;font-style:normal;font-variant:normal;font-weight:normal;font-stretch:normal;line-height:125%;letter-spacing:0px;word-spacing:0px;fill:#ff0000;fill-opacity:1;stroke:none;font-family:DejaVu Sans;-inkscape-font-specification:DejaVu Sans"
       x="175.99998"
       y="828.36218"
       id="text2991"
       sodipodi:linespacing="125%"><tspan
         sodipodi:role="line"
         id="tspan2993"
         x="175.99998"
         y="828.36218">t</tspan></text>
    <text
       xml:space="preserve"
       style="font-size:18px;font-style:normal;font-variant:normal;font-weight:normal;font-stretch:normal;line-height:125%;letter-spacing:0px;word-spacing:0px;fill:#800080;fill-opacity:1;stroke:none;font-family:DejaVu Sans;-inkscape-font-specification:DejaVu Sans"
       x="23.999985"
       y="820.36218"
       id="text2995"
       sodipodi:linespacing="125%"><tspan
         sodipodi:role="line"
         id="tspan2997"
         x="23.999985"
         y="820.36218">q</tspan></text>
    <g
       id="g3775"
       transform="matrix(-1.75,0,0,0.75,292.49998,319.09055)"
       style="fill:#800080">
      <path
         inkscape:connector-curvature="0"
         id="path2999"
         d="m 72,636.36218 48,0"
         style="fill:#800080;stroke:#800080;stroke-width:2.61861467;stroke-linecap:round;stroke-linejoin:round;stroke-miterlimit:4;stroke-opacity:1;stroke-dasharray:none" />
      <path
         transform="translate(0,572.36218)"
         inkscape:connector-curvature="0"
         id="path3769"
         d="m 120,56 0,16 16,-8 z"
         style="fill:#800080;stroke:none" />
    </g>
    <path
       transform="matrix(15.999998,0,0,15.999998,-1999.9996,-1763.6374)"
       d="m 184,160 c 0,4.41828 -3.58172,8 -8,8 -4.41828,0 -8,-3.58172 -8,-8 0,-4.41828 3.58172,-8 8,-8 4.41828,0 8,3.58172 8,8 z"
       sodipodi:ry="8"
       sodipodi:rx="8"
       sodipodi:cy="160"
       sodipodi:cx="176"
       id="path3843"
       style="fill:none;stroke:#000000;stroke-width:0.06250001;stroke-linecap:round;stroke-linejoin:round;stroke-miterlimit:4;stroke-opacity:1;stroke-dasharray:none;stroke-dashoffset:0"
       sodipodi:type="arc" />
    <path
       transform="translate(688,628.36218)"
       d="m 136,168 c 0,4.41828 -3.58172,8 -8,8 -4.41828,0 -8,-3.58172 -8,-8 0,-4.41828 3.58172,-8 8,-8 4.41828,0 8,3.58172 8,8 z"
       sodipodi:ry="8"
       sodipodi:rx="8"
       sodipodi:cy="168"
       sodipodi:cx="128"
       id="path3821"
       style="fill:#ff0000;fill-opacity:1;stroke:#000000;stroke-width:1;stroke-linecap:round;stroke-linejoin:round;stroke-miterlimit:4;stroke-opacity:1;stroke-dasharray:none;stroke-dashoffset:0"
       sodipodi:type="arc" />
    <path
       transform="translate(624,700.36218)"
       d="m 72,96 c 0,4.41828 -3.581722,8 -8,8 -4.418278,0 -8,-3.58172 -8,-8 0,-4.418278 3.581722,-8 8,-8 4.418278,0 8,3.581722 8,8 z"
       sodipodi:ry="8"
       sodipodi:rx="8"
       sodipodi:cy="96"
       sodipodi:cx="64"
       id="path3823"
       style="fill:#800080;fill-opacity:1;stroke:#800080;stroke-width:1;stroke-linecap:round;stroke-linejoin:round;stroke-miterlimit:4;stroke-opacity:1;stroke-dasharray:none;stroke-dashoffset:0"
       sodipodi:type="arc" />
    <text
       sodipodi:linespacing="125%"
       id="text3825"
       y="780.36218"
       x="832"
       style="font-size:18px;font-style:normal;font-variant:normal;font-weight:normal;font-stretch:normal;line-height:125%;letter-spacing:0px;word-spacing:0px;fill:#ff0000;fill-opacity:1;stroke:none;font-family:DejaVu Sans;-inkscape-font-specification:DejaVu Sans"
       xml:space="preserve"><tspan
         y="780.36218"
         x="832"
         id="tspan3827"
         sodipodi:role="line">t</tspan></text>
    <text
       sodipodi:linespacing="125%"
       id="text3829"
       y="820.36218"
       x="664"
       style="font-size:18px;font-style:normal;font-variant:normal;font-weight:normal;font-stretch:normal;line-height:125%;letter-spacing:0px;word-spacing:0px;fill:#800080;fill-opacity:1;stroke:none;font-family:DejaVu Sans;-inkscape-font-specification:DejaVu Sans"
       xml:space="preserve"><tspan
         y="820.36218"
         x="664"
         id="tspan3831"
         sodipodi:role="line">q</tspan></text>
    <g
       transform="matrix(-1.75,0,0,0.75,932.5,319.09055)"
       id="g3833"
       style="fill:#800080">
      <path
         style="fill:#800080;stroke:#800080;stroke-width:2.61861467;stroke-linecap:round;stroke-linejoin:round;stroke-miterlimit:4;stroke-opacity:1;stroke-dasharray:none"
         d="m 72,636.36218 48,0"
         id="path3835"
         inkscape:connector-curvature="0" />
      <path
         style="fill:#800080;stroke:none"
         d="m 120,56 0,16 16,-8 z"
         id="path3837"
         inkscape:connector-curvature="0"
         transform="translate(0,572.36218)" />
    </g>
    <path
       sodipodi:type="arc"
       style="fill:#ff6600;fill-opacity:1;stroke:none"
       id="path3845"
       sodipodi:cx="64"
       sodipodi:cy="96"
       sodipodi:rx="8"
       sodipodi:ry="8"
       d="m 72,96 c 0,4.41828 -3.581722,8 -8,8 -4.418278,0 -8,-3.58172 -8,-8 0,-4.418278 3.581722,-8 8,-8 4.418278,0 8,3.581722 8,8 z"
       transform="matrix(6.2381996e-4,-0.99999981,0.99999981,6.2381996e-4,719.88025,988.30225)"
       inkscape:transform-center-x="0.079848765"
       inkscape:transform-center-y="127.99997" />
    <g
       id="g3847"
       transform="matrix(0.00109168,1.7499997,0.74999985,-4.6786497e-4,338.57501,679.5871)"
       inkscape:transform-center-x="0.022458857"
       inkscape:transform-center-y="-64.750002"
       style="fill:#ff6600;stroke:#ff6600;stroke-width:1">
      <path
         inkscape:connector-curvature="0"
         id="path3849"
         d="m 72,636.36218 48,0"
         style="fill:#ff6600;stroke:#ff6600;stroke-width:2.61861467;stroke-linecap:round;stroke-linejoin:round;stroke-miterlimit:4;stroke-opacity:1;stroke-dasharray:none" />
      <path
         transform="translate(0,572.36218)"
         inkscape:connector-curvature="0"
         id="path3851"
         d="m 120,56 0,16 16,-8 z"
         style="fill:#ff6600;stroke:#ff6600;stroke-width:1" />
    </g>
    <path
       sodipodi:type="arc"
       style="fill:none;stroke:#ff6600;stroke-width:0.29411766;stroke-linecap:round;stroke-linejoin:round;stroke-miterlimit:4;stroke-opacity:1;stroke-dasharray:none;stroke-dashoffset:0"
       id="path3855"
       sodipodi:cx="444"
       sodipodi:cy="180"
       sodipodi:rx="20"
       sodipodi:ry="20"
       d="m 464,180 c 0,11.04569 -8.95431,20 -20,20"
       transform="matrix(-3.4,0,0,3.4,2301.6,212.36216)"
       sodipodi:start="0"
       sodipodi:end="1.5707963"
       sodipodi:open="true" />
    <path
       style="fill:none;stroke:#ff6600;stroke-width:1px;stroke-linecap:butt;stroke-linejoin:miter;stroke-opacity:1"
       d="m 784,900.36218 8,-8 -8,-8"
       id="path3857"
       inkscape:connector-curvature="0" />
    <text
       xml:space="preserve"
       style="font-size:18px;font-style:normal;font-variant:normal;font-weight:normal;font-stretch:normal;line-height:125%;letter-spacing:0px;word-spacing:0px;fill:#ff6600;fill-opacity:1;stroke:none;font-family:DejaVu Sans;-inkscape-font-specification:DejaVu Sans"
       x="792"
       y="954.19812"
       id="text3859"
       sodipodi:linespacing="125%"><tspan
         sodipodi:role="line"
         id="tspan3861"
         x="792"
         y="954.19812">q_up</tspan></text>
    <path
       transform="matrix(15.999998,0,0,15.999998,-2319.9996,-1763.6374)"
       d="m 184,160 c 0,4.41828 -3.58172,8 -8,8 -4.41828,0 -8,-3.58172 -8,-8 0,-4.41828 3.58172,-8 8,-8 4.41828,0 8,3.58172 8,8 z"
       sodipodi:ry="8"
       sodipodi:rx="8"
       sodipodi:cy="160"
       sodipodi:cx="176"
       id="path3903"
       style="fill:none;stroke:#000000;stroke-width:0.06250001;stroke-linecap:round;stroke-linejoin:round;stroke-miterlimit:4;stroke-opacity:1;stroke-dasharray:none;stroke-dashoffset:0"
       sodipodi:type="arc" />
    <path
       transform="translate(368,628.36218)"
       d="m 136,168 c 0,4.41828 -3.58172,8 -8,8 -4.41828,0 -8,-3.58172 -8,-8 0,-4.41828 3.58172,-8 8,-8 4.41828,0 8,3.58172 8,8 z"
       sodipodi:ry="8"
       sodipodi:rx="8"
       sodipodi:cy="168"
       sodipodi:cx="128"
       id="path3905"
       style="fill:#ff0000;fill-opacity:1;stroke:#000000;stroke-width:1;stroke-linecap:round;stroke-linejoin:round;stroke-miterlimit:4;stroke-opacity:1;stroke-dasharray:none;stroke-dashoffset:0"
       sodipodi:type="arc" />
    <path
       transform="translate(304,700.36218)"
       d="m 72,96 c 0,4.41828 -3.581722,8 -8,8 -4.418278,0 -8,-3.58172 -8,-8 0,-4.418278 3.581722,-8 8,-8 4.418278,0 8,3.581722 8,8 z"
       sodipodi:ry="8"
       sodipodi:rx="8"
       sodipodi:cy="96"
       sodipodi:cx="64"
       id="path3907"
       style="fill:#800080;fill-opacity:1;stroke:#800080;stroke-width:1;stroke-linecap:round;stroke-linejoin:round;stroke-miterlimit:4;stroke-opacity:1;stroke-dasharray:none;stroke-dashoffset:0"
       sodipodi:type="arc" />
    <text
       sodipodi:linespacing="125%"
       id="text3909"
       y="828.36218"
       x="496"
       style="font-size:18px;font-style:normal;font-variant:normal;font-weight:normal;font-stretch:normal;line-height:125%;letter-spacing:0px;word-spacing:0px;fill:#ff0000;fill-opacity:1;stroke:none;font-family:DejaVu Sans;-inkscape-font-specification:DejaVu Sans"
       xml:space="preserve"><tspan
         y="828.36218"
         x="496"
         id="tspan3911"
         sodipodi:role="line">t</tspan></text>
    <text
       sodipodi:linespacing="125%"
       id="text3913"
       y="820.36218"
       x="344"
       style="font-size:18px;font-style:normal;font-variant:normal;font-weight:normal;font-stretch:normal;line-height:125%;letter-spacing:0px;word-spacing:0px;fill:#800080;fill-opacity:1;stroke:none;font-family:DejaVu Sans;-inkscape-font-specification:DejaVu Sans"
       xml:space="preserve"><tspan
         y="820.36218"
         x="344"
         id="tspan3915"
         sodipodi:role="line">q</tspan></text>
    <g
       style="fill:#800080"
       transform="matrix(1.75,0,0,0.75,250,319.09055)"
       id="g3917">
      <path
         style="fill:#800080;stroke:#800080;stroke-width:2.61861467;stroke-linecap:round;stroke-linejoin:round;stroke-miterlimit:4;stroke-opacity:1;stroke-dasharray:none"
         d="m 72,636.36218 48,0"
         id="path3919"
         inkscape:connector-curvature="0" />
      <path
         style="fill:#800080;stroke:none"
         d="m 120,56 0,16 16,-8 z"
         id="path3921"
         inkscape:connector-curvature="0"
         transform="translate(0,572.36218)" />
    </g>
    <text
       sodipodi:linespacing="125%"
       id="text3923"
       y="828.36218"
       x="392"
       style="font-size:18px;font-style:normal;font-variant:normal;font-weight:normal;font-stretch:normal;line-height:125%;letter-spacing:0px;word-spacing:0px;fill:#800080;fill-opacity:1;stroke:none;font-family:DejaVu Sans;-inkscape-font-specification:DejaVu Sans"
       xml:space="preserve"><tspan
         y="828.36218"
         x="392"
         id="tspan3925"
         sodipodi:role="line">forward</tspan></text>
    <path
       sodipodi:type="arc"
       style="fill:none;stroke:#000000;stroke-width:0.06250001;stroke-linecap:round;stroke-linejoin:round;stroke-miterlimit:4;stroke-opacity:1;stroke-dasharray:none;stroke-dashoffset:0"
       id="path3963"
       sodipodi:cx="176"
       sodipodi:cy="160"
       sodipodi:rx="8"
       sodipodi:ry="8"
       d="m 184,160 c 0,4.41828 -3.58172,8 -8,8 -4.41828,0 -8,-3.58172 -8,-8 0,-4.41828 3.58172,-8 8,-8 4.41828,0 8,3.58172 8,8 z"
       transform="matrix(15.999998,0,0,15.999998,-1687.9996,-1763.6374)" />
    <path
       sodipodi:type="arc"
       style="fill:#ff0000;fill-opacity:1;stroke:#000000;stroke-width:1;stroke-linecap:round;stroke-linejoin:round;stroke-miterlimit:4;stroke-opacity:1;stroke-dasharray:none;stroke-dashoffset:0"
       id="path3965"
       sodipodi:cx="128"
       sodipodi:cy="168"
       sodipodi:rx="8"
       sodipodi:ry="8"
       d="m 136,168 c 0,4.41828 -3.58172,8 -8,8 -4.41828,0 -8,-3.58172 -8,-8 0,-4.41828 3.58172,-8 8,-8 4.41828,0 8,3.58172 8,8 z"
       transform="translate(1000,628.36218)" />
    <path
       sodipodi:type="arc"
       style="fill:#800080;fill-opacity:1;stroke:#800080;stroke-width:1;stroke-linecap:round;stroke-linejoin:round;stroke-miterlimit:4;stroke-opacity:1;stroke-dasharray:none;stroke-dashoffset:0"
       id="path3967"
       sodipodi:cx="64"
       sodipodi:cy="96"
       sodipodi:rx="8"
       sodipodi:ry="8"
       d="m 72,96 c 0,4.41828 -3.581722,8 -8,8 -4.418278,0 -8,-3.58172 -8,-8 0,-4.418278 3.581722,-8 8,-8 4.418278,0 8,3.581722 8,8 z"
       transform="translate(936,700.36218)" />
    <text
       xml:space="preserve"
       style="font-size:18px;font-style:normal;font-variant:normal;font-weight:normal;font-stretch:normal;line-height:125%;letter-spacing:0px;word-spacing:0px;fill:#ff0000;fill-opacity:1;stroke:none;font-family:DejaVu Sans;-inkscape-font-specification:DejaVu Sans"
       x="1144"
       y="780.36218"
       id="text3969"
       sodipodi:linespacing="125%"><tspan
         sodipodi:role="line"
         id="tspan3971"
         x="1144"
         y="780.36218">t</tspan></text>
    <text
       xml:space="preserve"
       style="font-size:18px;font-style:normal;font-variant:normal;font-weight:normal;font-stretch:normal;line-height:125%;letter-spacing:0px;word-spacing:0px;fill:#800080;fill-opacity:1;stroke:none;font-family:DejaVu Sans;-inkscape-font-specification:DejaVu Sans"
       x="976"
       y="820.36218"
       id="text3973"
       sodipodi:linespacing="125%"><tspan
         sodipodi:role="line"
         id="tspan3975"
         x="976"
         y="820.36218">q</tspan></text>
    <g
       style="fill:#800080"
       id="g3977"
       transform="matrix(-1.75,0,0,0.75,1244.5,319.09055)">
      <path
         inkscape:connector-curvature="0"
         id="path3979"
         d="m 72,636.36218 48,0"
         style="fill:#800080;stroke:#800080;stroke-width:2.61861467;stroke-linecap:round;stroke-linejoin:round;stroke-miterlimit:4;stroke-opacity:1;stroke-dasharray:none" />
      <path
         transform="translate(0,572.36218)"
         inkscape:connector-curvature="0"
         id="path3981"
         d="m 120,56 0,16 16,-8 z"
         style="fill:#800080;stroke:none" />
    </g>
    <path
       inkscape:transform-center-y="127.99997"
       inkscape:transform-center-x="0.079848765"
       transform="matrix(6.2381996e-4,-0.99999981,0.99999981,6.2381996e-4,1031.8803,988.30225)"
       d="m 72,96 c 0,4.41828 -3.581722,8 -8,8 -4.418278,0 -8,-3.58172 -8,-8 0,-4.418278 3.581722,-8 8,-8 4.418278,0 8,3.581722 8,8 z"
       sodipodi:ry="8"
       sodipodi:rx="8"
       sodipodi:cy="96"
       sodipodi:cx="64"
       id="path3983"
       style="fill:#ff6600;fill-opacity:1;stroke:none"
       sodipodi:type="arc" />
    <g
       style="fill:#ff6600;stroke:#ff6600;stroke-width:1"
       inkscape:transform-center-y="64.750006"
       inkscape:transform-center-x="0.022458857"
       transform="matrix(0.00109168,-1.7499997,0.74999985,4.6786497e-4,650.57501,1042.0644)"
       id="g3985">
      <path
         style="fill:#ff6600;stroke:#ff6600;stroke-width:2.61861467;stroke-linecap:round;stroke-linejoin:round;stroke-miterlimit:4;stroke-opacity:1;stroke-dasharray:none"
         d="m 72,636.36218 48,0"
         id="path3987"
         inkscape:connector-curvature="0" />
      <path
         style="fill:#ff6600;stroke:#ff6600;stroke-width:1"
         d="m 120,56 0,16 16,-8 z"
         id="path3989"
         inkscape:connector-curvature="0"
         transform="translate(0,572.36218)" />
    </g>
    <text
       sodipodi:linespacing="125%"
       id="text3999"
       y="954.19812"
       x="1104"
       style="font-size:18px;font-style:normal;font-variant:normal;font-weight:normal;font-stretch:normal;line-height:125%;letter-spacing:0px;word-spacing:0px;fill:#ff6600;fill-opacity:1;stroke:none;font-family:DejaVu Sans;-inkscape-font-specification:DejaVu Sans"
       xml:space="preserve"><tspan
         y="954.19812"
         x="1104"
         id="tspan4001"
         sodipodi:role="line">q_up</tspan></text>
    <text
       xml:space="preserve"
       style="font-size:18px;font-style:normal;font-variant:normal;font-weight:normal;font-stretch:normal;line-height:125%;letter-spacing:0px;word-spacing:0px;fill:#ff6600;fill-opacity:1;stroke:none;font-family:DejaVu Sans;-inkscape-font-specification:DejaVu Sans"
       x="1162"
       y="223.58093"
       id="text4003"
       sodipodi:linespacing="125%"
       transform="translate(-7.0068512,635.8623)"><tspan
         sodipodi:role="line"
         id="tspan4005"
         x="1162"
         y="223.58093">up</tspan></text>
    <path
       transform="matrix(15.999998,0,0,15.999998,-1359.9996,-1763.6374)"
       d="m 184,160 c 0,4.41828 -3.58172,8 -8,8 -4.41828,0 -8,-3.58172 -8,-8 0,-4.41828 3.58172,-8 8,-8 4.41828,0 8,3.58172 8,8 z"
       sodipodi:ry="8"
       sodipodi:rx="8"
       sodipodi:cy="160"
       sodipodi:cx="176"
       id="path4007"
       style="fill:none;stroke:#000000;stroke-width:0.06250001;stroke-linecap:round;stroke-linejoin:round;stroke-miterlimit:4;stroke-opacity:1;stroke-dasharray:none;stroke-dashoffset:0"
       sodipodi:type="arc" />
    <path
       transform="translate(1328,628.36218)"
       d="m 136,168 c 0,4.41828 -3.58172,8 -8,8 -4.41828,0 -8,-3.58172 -8,-8 0,-4.41828 3.58172,-8 8,-8 4.41828,0 8,3.58172 8,8 z"
       sodipodi:ry="8"
       sodipodi:rx="8"
       sodipodi:cy="168"
       sodipodi:cx="128"
       id="path4009"
       style="fill:#ff0000;fill-opacity:1;stroke:#000000;stroke-width:1;stroke-linecap:round;stroke-linejoin:round;stroke-miterlimit:4;stroke-opacity:1;stroke-dasharray:none;stroke-dashoffset:0"
       sodipodi:type="arc" />
    <path
       transform="translate(1264,700.36218)"
       d="m 72,96 c 0,4.41828 -3.581722,8 -8,8 -4.418278,0 -8,-3.58172 -8,-8 0,-4.418278 3.581722,-8 8,-8 4.418278,0 8,3.581722 8,8 z"
       sodipodi:ry="8"
       sodipodi:rx="8"
       sodipodi:cy="96"
       sodipodi:cx="64"
       id="path4011"
       style="fill:#800080;fill-opacity:1;stroke:#800080;stroke-width:1;stroke-linecap:round;stroke-linejoin:round;stroke-miterlimit:4;stroke-opacity:1;stroke-dasharray:none;stroke-dashoffset:0"
       sodipodi:type="arc" />
    <text
       sodipodi:linespacing="125%"
       id="text4013"
       y="780.36218"
       x="1472"
       style="font-size:18px;font-style:normal;font-variant:normal;font-weight:normal;font-stretch:normal;line-height:125%;letter-spacing:0px;word-spacing:0px;fill:#ff0000;fill-opacity:1;stroke:none;font-family:DejaVu Sans;-inkscape-font-specification:DejaVu Sans"
       xml:space="preserve"><tspan
         y="780.36218"
         x="1472"
         id="tspan4015"
         sodipodi:role="line">t</tspan></text>
    <text
       sodipodi:linespacing="125%"
       id="text4017"
       y="820.36218"
       x="1304"
       style="font-size:18px;font-style:normal;font-variant:normal;font-weight:normal;font-stretch:normal;line-height:125%;letter-spacing:0px;word-spacing:0px;fill:#800080;fill-opacity:1;stroke:none;font-family:DejaVu Sans;-inkscape-font-specification:DejaVu Sans"
       xml:space="preserve"><tspan
         y="820.36218"
         x="1304"
         id="tspan4019"
         sodipodi:role="line">q</tspan></text>
    <g
       transform="matrix(1.75,0,0,0.75,1210,319.09055)"
       id="g4021"
       style="fill:#800080">
      <path
         style="fill:#800080;stroke:#800080;stroke-width:2.61861467;stroke-linecap:round;stroke-linejoin:round;stroke-miterlimit:4;stroke-opacity:1;stroke-dasharray:none"
         d="m 72,636.36218 48,0"
         id="path4023"
         inkscape:connector-curvature="0" />
      <path
         style="fill:#800080;stroke:none"
         d="m 120,56 0,16 16,-8 z"
         id="path4025"
         inkscape:connector-curvature="0"
         transform="translate(0,572.36218)" />
    </g>
    <path
       sodipodi:type="arc"
       style="fill:#ff6600;fill-opacity:1;stroke:none"
       id="path4027"
       sodipodi:cx="64"
       sodipodi:cy="96"
       sodipodi:rx="8"
       sodipodi:ry="8"
       d="m 72,96 a 8,8 0 1 1 -16,0 8,8 0 1 1 16,0 z"
       transform="matrix(6.2381996e-4,-0.99999981,0.99999981,6.2381996e-4,1231.9027,860.30225)"
       inkscape:transform-center-x="0.079848765"
       inkscape:transform-center-y="127.99997" />
    <g
       id="g4029"
       transform="matrix(0.00109168,-1.7499997,0.74999985,4.6786497e-4,850.59746,914.0644)"
       inkscape:transform-center-x="0.022458857"
       inkscape:transform-center-y="64.750006"
       style="fill:#ff6600;stroke:#ff6600;stroke-width:1">
      <path
         inkscape:connector-curvature="0"
         id="path4031"
         d="m 72,636.36218 48,0"
         style="fill:#ff6600;stroke:#ff6600;stroke-width:2.61861467;stroke-linecap:round;stroke-linejoin:round;stroke-miterlimit:4;stroke-opacity:1;stroke-dasharray:none" />
      <path
         transform="translate(0,572.36218)"
         inkscape:connector-curvature="0"
         id="path4033"
         d="m 120,56 0,16 16,-8 z"
         style="fill:#ff6600;stroke:#ff6600;stroke-width:1" />
    </g>
    <text
       sodipodi:linespacing="125%"
       id="text4039"
       y="748.36218"
       x="1288"
       style="font-size:18px;font-style:normal;font-variant:normal;font-weight:normal;font-stretch:normal;line-height:125%;letter-spacing:0px;word-spacing:0px;fill:#ff6600;fill-opacity:1;stroke:none;font-family:DejaVu Sans;-inkscape-font-specification:DejaVu Sans"
       xml:space="preserve"><tspan
         y="748.36218"
         x="1288"
         id="tspan4041"
         sodipodi:role="line">up</tspan></text>
    <text
       xml:space="preserve"
       style="font-size:18px;font-style:normal;font-variant:normal;font-weight:normal;font-stretch:normal;line-height:125%;letter-spacing:0px;word-spacing:0px;fill:#800080;fill-opacity:1;stroke:none;font-family:DejaVu Sans;-inkscape-font-specification:DejaVu Sans"
       x="1352"
       y="828.36218"
       id="text4043"
       sodipodi:linespacing="125%"><tspan
         sodipodi:role="line"
         id="tspan4045"
         x="1352"
         y="828.36218">forward</tspan></text>
    <text
       xml:space="preserve"
       style="font-size:18px;font-style:normal;font-variant:normal;font-weight:normal;font-stretch:normal;line-height:125%;letter-spacing:0px;word-spacing:0px;fill:#000000;fill-opacity:1;stroke:none;font-family:DejaVu Sans;-inkscape-font-specification:DejaVu Sans"
       x="24"
       y="684.36218"
       id="text4047"
       sodipodi:linespacing="125%"><tspan
         sodipodi:role="line"
         id="tspan4049"
         x="24"
         y="684.36218">1</tspan></text>
    <text
       sodipodi:linespacing="125%"
       id="text4051"
       y="684.36218"
       x="344"
       style="font-size:18px;font-style:normal;font-variant:normal;font-weight:normal;font-stretch:normal;line-height:125%;letter-spacing:0px;word-spacing:0px;fill:#000000;fill-opacity:1;stroke:none;font-family:DejaVu Sans;-inkscape-font-specification:DejaVu Sans"
       xml:space="preserve"><tspan
         y="684.36218"
         x="344"
         id="tspan4053"
         sodipodi:role="line">2</tspan></text>
    <text
       xml:space="preserve"
       style="font-size:18px;font-style:normal;font-variant:normal;font-weight:normal;font-stretch:normal;line-height:125%;letter-spacing:0px;word-spacing:0px;fill:#000000;fill-opacity:1;stroke:none;font-family:DejaVu Sans;-inkscape-font-specification:DejaVu Sans"
       x="664"
       y="684.36218"
       id="text4055"
       sodipodi:linespacing="125%"><tspan
         sodipodi:role="line"
         id="tspan4057"
         x="664"
         y="684.36218">3</tspan></text>
    <text
       sodipodi:linespacing="125%"
       id="text4059"
       y="684.36218"
       x="976"
       style="font-size:18px;font-style:normal;font-variant:normal;font-weight:normal;font-stretch:normal;line-height:125%;letter-spacing:0px;word-spacing:0px;fill:#000000;fill-opacity:1;stroke:none;font-family:DejaVu Sans;-inkscape-font-specification:DejaVu Sans"
       xml:space="preserve"><tspan
         y="684.36218"
         x="976"
         id="tspan4061"
         sodipodi:role="line">4</tspan></text>
    <text
       xml:space="preserve"
       style="font-size:18px;font-style:normal;font-variant:normal;font-weight:normal;font-stretch:normal;line-height:125%;letter-spacing:0px;word-spacing:0px;fill:#000000;fill-opacity:1;stroke:none;font-family:DejaVu Sans;-inkscape-font-specification:DejaVu Sans"
       x="1288"
       y="684.36218"
       id="text4063"
       sodipodi:linespacing="125%"><tspan
         sodipodi:role="line"
         id="tspan4065"
         x="1288"
         y="684.36218">5</tspan></text>
  </g>
</svg>
